<?xml version="1.0" encoding="UTF-8" standalone="no"?>
<!DOCTYPE svg PUBLIC "-//W3C//DTD SVG 20010904//EN"
              "http://www.w3.org/TR/2001/REC-SVG-20010904/DTD/svg10.dtd">

<svg xmlns="http://www.w3.org/2000/svg"
     width="5.55486in" height="5.55486in"
     viewBox="0 0 400 400">
  <path id="Selection"
        fill="none" stroke="black" stroke-width="1"
        d="M 56.00,0.00
           C 56.00,0.00 119.00,0.00 119.00,0.00
             119.00,0.00 315.00,0.00 315.00,0.00
             315.00,0.00 370.00,0.00 370.00,0.00
             388.11,0.03 399.97,11.89 400.00,30.00
             400.00,30.00 400.00,315.00 400.00,315.00
             400.00,315.00 400.00,370.00 400.00,370.00
             399.97,387.84 387.84,399.97 370.00,400.00
             370.00,400.00 85.00,400.00 85.00,400.00
             85.00,400.00 30.00,400.00 30.00,400.00
             11.92,399.97 0.03,388.08 0.00,370.00
             0.00,370.00 0.00,91.00 0.00,91.00
             0.00,91.00 0.00,45.00 0.00,45.00
             0.00,45.00 0.53,22.00 0.53,22.00
             3.00,11.23 11.71,3.57 22.00,0.53
             22.00,0.53 56.00,0.00 56.00,0.00 Z
           M 149.00,30.00
           C 149.00,30.00 142.40,66.00 142.40,66.00
             142.40,66.00 131.00,124.00 131.00,124.00
             131.00,124.00 100.20,283.00 100.20,283.00
             100.20,283.00 86.58,353.00 86.58,353.00
             86.58,353.00 83.00,372.00 83.00,372.00
             83.00,372.00 118.00,372.00 118.00,372.00
             125.19,371.87 124.27,370.71 126.20,361.00
             127.54,354.25 129.33,341.72 132.00,336.00
             134.04,342.40 139.12,348.88 143.44,354.00
             175.32,391.78 239.90,381.60 273.00,350.91
             302.27,323.78 321.99,286.31 328.59,247.00
             329.81,239.74 330.99,232.37 331.00,225.00
             331.00,225.00 331.00,205.00 331.00,205.00
             330.98,194.53 328.52,181.84 324.95,172.00
             321.77,163.26 316.87,154.12 310.86,147.00
             296.49,130.01 276.34,120.03 254.00,120.00
             254.00,120.00 242.00,120.00 242.00,120.00
             229.90,120.15 213.85,124.97 203.00,130.26
             186.39,138.35 176.98,147.20 165.00,161.00
             165.00,161.00 181.20,79.00 181.20,79.00
             181.20,79.00 191.00,30.00 191.00,30.00
             191.00,30.00 149.00,30.00 149.00,30.00 Z
           M 247.00,155.46
           C 251.38,156.27 257.08,158.22 261.00,160.32
             280.33,170.67 288.97,194.03 289.00,215.00
             289.00,215.00 289.00,231.00 289.00,231.00
             288.89,239.96 285.91,253.29 283.42,262.00
             273.32,297.40 252.14,334.69 213.00,342.20
             209.61,342.84 200.22,344.09 197.00,343.91
             192.22,343.64 182.37,342.21 178.00,340.53
             153.28,331.04 144.29,305.66 144.00,281.00
             143.55,242.27 161.13,187.81 195.00,166.09
             208.22,157.61 216.17,156.54 231.00,154.42
             236.00,153.83 242.02,154.54 247.00,155.46 Z" />
</svg>
