<?xml version="1.0" standalone="no"?>
<!DOCTYPE svg PUBLIC "-//W3C//DTD SVG 20010904//EN"
 "http://www.w3.org/TR/2001/REC-SVG-20010904/DTD/svg10.dtd">
<svg version="1.0" xmlns="http://www.w3.org/2000/svg"
 width="400.000000pt" height="400.000000pt" viewBox="0 0 400.000000 400.000000"
 preserveAspectRatio="xMidYMid meet">
<metadata>
Created by potrace 1.16, written by Peter Selinger 2001-2019
</metadata>
<g transform="translate(0.000000,400.000000) scale(0.100000,-0.100000)"
fill="#000000" stroke="none">
<path d="M0 2000 l0 -2000 2000 0 2000 0 0 2000 0 2000 -2000 0 -2000 0 0
-2000z m1900 1688 c0 -7 -56 -300 -125 -651 -69 -351 -125 -640 -125 -643 0
-2 39 36 88 85 194 197 431 305 699 318 273 13 470 -61 637 -238 92 -97 162
-231 203 -384 25 -94 27 -113 27 -325 1 -195 -2 -240 -22 -337 -78 -388 -276
-758 -536 -1001 -216 -202 -491 -303 -785 -289 -181 9 -300 51 -429 152 -67
52 -163 166 -197 234 -23 45 -27 36 -55 -114 -12 -66 -26 -141 -32 -167 l-10
-48 -204 0 -204 0 5 23 c3 12 151 776 330 1697 179 921 328 1681 330 1688 3 9
53 12 205 12 153 0 200 -3 200 -12z"/>
<path d="M2270 2454 c-224 -33 -399 -140 -538 -329 -247 -336 -358 -878 -247
-1207 57 -168 165 -281 318 -331 82 -27 262 -29 357 -3 140 36 273 117 375
228 182 196 330 557 354 862 28 363 -81 627 -300 731 -98 45 -216 64 -319 49z"/>
</g>
</svg>
